<svg id="Layer_1" data-name="Layer 1" xmlns="http://www.w3.org/2000/svg" xmlns:xlink="http://www.w3.org/1999/xlink" viewBox="0 0 694.02 193.37"><defs><linearGradient id="linear-gradient" x1="114.78" y1="142.12" x2="114.78" y2="-74.91" gradientTransform="matrix(1, 0, 0, -1, 0, 196)" gradientUnits="userSpaceOnUse"><stop offset="0" stop-color="#1cffd8"/><stop offset="1" stop-color="#6c43ff"/></linearGradient><linearGradient id="linear-gradient-2" x1="347.43" y1="142.12" x2="347.43" y2="-74.91" xlink:href="#linear-gradient"/><linearGradient id="linear-gradient-3" x1="580.09" y1="142.12" x2="580.09" y2="-74.91" xlink:href="#linear-gradient"/></defs><title>publisher_split_euV2</title><text transform="translate(83.35 29.95)" style="isolation:isolate;font-size:35px;fill:#202063;font-family:RobotoMono-Regular, Roboto Mono">33%</text><path d="M2.56,74.42h0A24.33,24.33,0,0,1,26.89,50.09H202.81a24.33,24.33,0,0,1,24.33,24.33h0" style="fill:none;stroke:#202063;stroke-linecap:round;stroke-linejoin:round;stroke-width:5.110480785369873px"/><path d="M235.23,74.42h0a24.33,24.33,0,0,1,24.33-24.33H435.48A24.34,24.34,0,0,1,459.8,74.42h0" style="fill:none;stroke:#202063;stroke-linecap:round;stroke-linejoin:round;stroke-width:5.110480785369873px"/><path d="M467.89,74.42h0a24.33,24.33,0,0,1,24.33-24.33H668.14a24.33,24.33,0,0,1,24.33,24.33h0" style="fill:none;stroke:#202063;stroke-linecap:round;stroke-linejoin:round;stroke-width:5.110480785369873px"/><g style="isolation:isolate"><text transform="translate(37.17 100.25)" style="isolation:isolate;font-size:35px;fill:#202063;font-family:Muli-Bold, Muli;font-weight:700;letter-spacing:-0.0080078125em">P</text><text transform="translate(60.17 100.25)" style="isolation:isolate;font-size:35px;fill:#202063;font-family:Muli-Bold, Muli;font-weight:700">ublisher</text></g><path d="M147.45,161.11a31.85,31.85,0,0,1-8.19,21.35A32.8,32.8,0,0,1,92.94,185a31.32,31.32,0,0,1-2.63-2.65,32,32,0,0,1,8.78-49.43,32.92,32.92,0,0,1,31.75.13A32.19,32.19,0,0,1,147.45,161.11Z" style="fill:#d1e3ff;fill-rule:evenodd"/><path d="M139.26,182.46A32.8,32.8,0,0,1,92.94,185a31.32,31.32,0,0,1-2.63-2.65L102.12,176a5.14,5.14,0,0,0,2.73-4.53v-5.19a28,28,0,0,1-5.22-10.68,4.21,4.21,0,0,1-2-3.57v-5.68a4.25,4.25,0,0,1,1.44-3.16v-8.21a10.43,10.43,0,0,1,0-2.09c.38-3.63,2.77-10.71,15.86-10.71,13.27,0,15.56,7.26,15.89,10.84a9.55,9.55,0,0,1,0,2v8.21a4.3,4.3,0,0,1,1.44,3.16V152a4.28,4.28,0,0,1-3.07,4.06,30.86,30.86,0,0,1-4.24,8.47c-.46.65-.92,1.22-1.3,1.66v5.34a5.17,5.17,0,0,0,2.9,4.63Z" style="fill:url(#linear-gradient)"/><text transform="translate(316.01 29.95)" style="isolation:isolate;font-size:35px;fill:#202063;font-family:RobotoMono-Regular, Roboto Mono">33%</text><text transform="translate(254.47 100.25)" style="isolation:isolate;font-size:35px;fill:#202063;font-family:Muli-Bold, Muli;font-weight:700">Songwriter</text><path d="M380.11,161.11a31.86,31.86,0,0,1-8.18,21.35A32.81,32.81,0,0,1,325.6,185a32,32,0,0,1,6.2-52.12,32.91,32.91,0,0,1,31.74.13A32.16,32.16,0,0,1,380.11,161.11Z" style="fill:#d1e3ff;fill-rule:evenodd"/><path d="M371.93,182.46A32.81,32.81,0,0,1,325.6,185a32.28,32.28,0,0,1-2.67-2.69L334.8,176a5.14,5.14,0,0,0,2.73-4.53v-5.19a27.91,27.91,0,0,1-5.23-10.68,4.21,4.21,0,0,1-2-3.57v-5.68a4.25,4.25,0,0,1,1.44-3.16v-8.21a9.13,9.13,0,0,1,0-2.09c.38-3.63,2.77-10.71,15.86-10.71,13.26,0,15.56,7.26,15.88,10.84a9.55,9.55,0,0,1,0,2v8.21a4.26,4.26,0,0,1,1.45,3.16V152a4.3,4.3,0,0,1-3.08,4.06,30.73,30.73,0,0,1-4.28,8.5c-.47.65-.92,1.22-1.31,1.66v5.31a5.17,5.17,0,0,0,2.91,4.63Z" style="fill:url(#linear-gradient-2)"/><text transform="translate(548.68 29.95)" style="isolation:isolate;font-size:35px;fill:#202063;font-family:RobotoMono-Regular, Roboto Mono">33%</text><g style="isolation:isolate"><text transform="translate(495.85 100.25)" style="isolation:isolate;font-size:35px;fill:#202063;font-family:Muli-Bold, Muli;font-weight:700;letter-spacing:-0.010002790178571428em">C</text><text transform="translate(519.48 100.25)" style="isolation:isolate;font-size:35px;fill:#202063;font-family:Muli-Bold, Muli;font-weight:700">omposer</text></g><path d="M612.78,161.11a31.85,31.85,0,0,1-8.19,21.35A32.81,32.81,0,0,1,558.26,185a32,32,0,0,1,6.12-52.12,32.92,32.92,0,0,1,31.75.13A32.18,32.18,0,0,1,612.78,161.11Z" style="fill:#d1e3ff;fill-rule:evenodd"/><path d="M604.59,182.46A32.81,32.81,0,0,1,558.26,185a32.28,32.28,0,0,1-2.67-2.69L567.4,176a5.15,5.15,0,0,0,2.74-4.53v-5.19A27.88,27.88,0,0,1,565,155.56a4.21,4.21,0,0,1-2-3.57v-5.68a4.25,4.25,0,0,1,1.44-3.16v-8.21a10.43,10.43,0,0,1,0-2.09c.38-3.63,2.77-10.71,15.86-10.71,13.27,0,15.56,7.26,15.89,10.84a9.55,9.55,0,0,1,0,2v8.21a4.3,4.3,0,0,1,1.44,3.16V152a4.3,4.3,0,0,1-3.07,4.06,30.76,30.76,0,0,1-4.29,8.5c-.46.65-.92,1.22-1.3,1.66v5.31a5.17,5.17,0,0,0,2.9,4.63Z" style="fill:url(#linear-gradient-3)"/></svg>