<?xml version="1.0" encoding="utf-8"?>
<!-- Generator: Adobe Illustrator 23.0.0, SVG Export Plug-In . SVG Version: 6.00 Build 0)  -->
<svg version="1.1" id="Layer_1" xmlns="http://www.w3.org/2000/svg" xmlns:xlink="http://www.w3.org/1999/xlink" x="0px" y="0px"
	 viewBox="0 0 698.3 196" style="enable-background:new 0 0 698.3 196;" xml:space="preserve">
<style type="text/css">
	.st0{fill:#202063;}
	.st1{font-family:'RobotoMono-Regular';}
	.st2{font-size:35px;}
	.st3{font-family:'Muli-Bold';}
	.st4{fill-rule:evenodd;clip-rule:evenodd;fill:#D1E3FF;}
	.st5{fill:url(#SVGID_1_);}
	.st6{fill:url(#SVGID_2_);}
	.st7{fill:url(#SVGID_3_);}
	.st8{fill:none;stroke:#202063;stroke-width:5.1105;stroke-linecap:round;stroke-linejoin:round;}
	.st9{fill:none;stroke:#202063;stroke-width:5.3233;stroke-linecap:round;stroke-linejoin:round;}
</style>
<title>publisher_split_usa</title>
<g>
	<text transform="matrix(1 0 0 1 63.915 28.0294)" class="st0 st1 st2">50%</text>
	<text transform="matrix(1 0 0 1 413.395 28.0294)" class="st0 st1 st2">50%</text>
	<text transform="matrix(1 0 0 1 17.745 98.3294)" class="st0 st3 st2">P</text>
	<text transform="matrix(1 0 0 1 40.745 98.3294)" class="st0 st3 st2">ublisher</text>
	<text transform="matrix(1 0 0 1 231.985 98.3294)" class="st0 st3 st2">Songwriter</text>
	<text transform="matrix(1 0 0 1 489.165 98.3294)" class="st0 st3 st2">C</text>
	<text transform="matrix(1 0 0 1 512.795 98.3294)" class="st0 st3 st2">omposer</text>
	<path class="st4" d="M128,159.2c0,7.9-2.9,15.5-8.2,21.4c-12.1,13.5-32.8,14.6-46.3,2.6c-1-0.9-1.9-1.8-2.7-2.7
		c-11.7-13.2-10.5-33.4,2.7-45.2c1.9-1.7,3.9-3.1,6.1-4.3c9.9-5.4,21.9-5.3,31.7,0.1C121.6,136.7,128,147.5,128,159.2z"/>
	
		<linearGradient id="SVGID_1_" gradientUnits="userSpaceOnUse" x1="95.335" y1="140.0306" x2="95.335" y2="-76.9994" gradientTransform="matrix(1 0 0 -1 0 192)">
		<stop  offset="0" style="stop-color:#1CFFD8"/>
		<stop  offset="1" style="stop-color:#6C43FF"/>
	</linearGradient>
	<path class="st5" d="M119.8,180.5c-12.1,13.5-32.8,14.6-46.3,2.6c-1-0.9-1.9-1.8-2.7-2.7l11.9-6.3c1.7-0.9,2.7-2.6,2.7-4.5v-5.2
		c-2.5-3.1-4.3-6.8-5.2-10.6c-1.2-0.8-2-2.1-2-3.6v-5.7c0-1.2,0.5-2.3,1.4-3.1v-8.2c-0.1-0.7-0.1-1.4,0-2.1
		c0.4-3.6,2.8-10.7,15.9-10.7c13.3,0,15.6,7.3,15.9,10.8c0.1,0.6,0.1,1.3,0,1.9v8.2c0.9,0.8,1.4,1.9,1.4,3.2v5.7
		c0,1.9-1.3,3.5-3.1,4.1c-1,3-2.4,5.9-4.3,8.5c-0.4,0.6-0.8,1.1-1.3,1.6v5.3c0,2,1.1,3.8,2.9,4.6L119.8,180.5z"/>
	<path class="st4" d="M372.9,159.2c0,7.9-2.9,15.5-8.2,21.4c-12.1,13.5-32.8,14.6-46.3,2.6c-1-0.9-1.9-1.8-2.7-2.7
		c-11.7-13.2-10.5-33.4,2.7-45.2c1.9-1.7,3.9-3.1,6.1-4.3c9.9-5.4,21.9-5.3,31.7,0.1C366.5,136.7,372.9,147.5,372.9,159.2z"/>
	
		<linearGradient id="SVGID_2_" gradientUnits="userSpaceOnUse" x1="340.235" y1="140.0306" x2="340.235" y2="-76.9994" gradientTransform="matrix(1 0 0 -1 0 192)">
		<stop  offset="0" style="stop-color:#1CFFD8"/>
		<stop  offset="1" style="stop-color:#6C43FF"/>
	</linearGradient>
	<path class="st6" d="M364.7,180.5c-12.1,13.5-32.8,14.6-46.3,2.6c-1-0.9-1.9-1.8-2.7-2.7l11.8-6.3c1.7-0.9,2.7-2.6,2.7-4.5v-5.2
		c-2.5-3.1-4.3-6.8-5.2-10.6c-1.2-0.8-2-2.1-2-3.6v-5.7c0-1.2,0.5-2.4,1.4-3.2V133c-0.1-0.7-0.1-1.4,0-2.1
		c0.4-3.6,2.8-10.7,15.9-10.7c13.3,0,15.6,7.3,15.9,10.8c0.1,0.6,0.1,1.3,0,1.9v8.3c0.9,0.8,1.4,1.9,1.5,3.2v5.7
		c0,1.9-1.3,3.5-3.1,4.1c-1,3-2.4,5.9-4.3,8.5c-0.5,0.6-0.9,1.2-1.3,1.6v5.3c0,2,1.1,3.8,2.9,4.6L364.7,180.5z"/>
	<path class="st4" d="M606.1,159.2c0,7.9-2.9,15.5-8.2,21.4c-12.1,13.5-32.8,14.6-46.3,2.6c-1-0.9-1.9-1.8-2.7-2.7
		c-11.7-13.2-10.5-33.5,2.7-45.2c1.9-1.7,3.9-3.1,6.1-4.3c9.9-5.4,21.9-5.3,31.7,0.1C599.7,136.7,606.1,147.5,606.1,159.2z"/>
	
		<linearGradient id="SVGID_3_" gradientUnits="userSpaceOnUse" x1="573.405" y1="140.0306" x2="573.405" y2="-76.9994" gradientTransform="matrix(1 0 0 -1 0 192)">
		<stop  offset="0" style="stop-color:#1CFFD8"/>
		<stop  offset="1" style="stop-color:#6C43FF"/>
	</linearGradient>
	<path class="st7" d="M597.9,180.5c-12.1,13.5-32.8,14.6-46.3,2.6c-1-0.9-1.9-1.8-2.7-2.7l11.8-6.3c1.7-0.9,2.7-2.6,2.7-4.5v-5.2
		c-2.5-3.1-4.3-6.8-5.2-10.6c-1.2-0.8-2-2.1-2-3.6v-5.7c0-1.2,0.6-2.3,1.5-3.1v-8.2c-0.1-0.7-0.1-1.4,0-2.1
		c0.4-3.6,2.8-10.7,15.9-10.7c13.3,0,15.6,7.3,15.9,10.8c0.1,0.6,0.1,1.3,0,1.9v8.2c0.9,0.8,1.4,1.9,1.4,3.2v5.7
		c0,1.9-1.3,3.5-3.1,4.1c-1,3-2.4,5.9-4.3,8.5c-0.4,0.6-0.8,1.1-1.3,1.6v5.3c0,2,1.1,3.8,2.9,4.6L597.9,180.5z"/>
	<path class="st8" d="M3.7,72.5L3.7,72.5C3.7,59.1,15,48.2,29,48.2h132.9c14,0,25.3,10.9,25.3,24.3l0,0"/>
	<path class="st9" d="M195.3,72.5L195.3,72.5c0-13.4,12.3-24.3,27.4-24.3h444.4c15.1,0,27.4,10.9,27.4,24.3l0,0"/>
</g>
</svg>
