<?xml version="1.0" encoding="utf-8"?>
<!-- Generator: Adobe Illustrator 23.0.0, SVG Export Plug-In . SVG Version: 6.00 Build 0)  -->
<svg version="1.1" id="Layer_1" xmlns="http://www.w3.org/2000/svg" xmlns:xlink="http://www.w3.org/1999/xlink" x="0px" y="0px"
	 viewBox="0 0 700 200" style="enable-background:new 0 0 700 200;" xml:space="preserve">
<style type="text/css">
	.st0{display:none;}
	.st1{display:inline;fill:#202063;}
	.st2{font-family:'RobotoMono-Regular';}
	.st3{font-size:35px;}
	.st4{font-family:'Muli-Bold';}
	.st5{display:inline;fill-rule:evenodd;clip-rule:evenodd;fill:#D1E3FF;}
	.st6{display:inline;fill:url(#SVGID_1_);}
	.st7{display:inline;fill:url(#SVGID_2_);}
	.st8{display:inline;fill:url(#SVGID_3_);}
	.st9{display:inline;fill:none;stroke:#202063;stroke-width:5.1105;stroke-linecap:round;stroke-linejoin:round;}
	.st10{display:inline;fill:none;stroke:#202063;stroke-width:5.3233;stroke-linecap:round;stroke-linejoin:round;}
	.st11{fill:#202063;}
	.st12{fill:none;stroke:#202063;stroke-width:5.1105;stroke-linecap:round;stroke-linejoin:round;}
	.st13{fill-rule:evenodd;clip-rule:evenodd;fill:#D1E3FF;}
	.st14{fill:url(#SVGID_4_);}
	.st15{fill:url(#SVGID_5_);}
	.st16{fill:url(#SVGID_6_);}
</style>
<title>publisher_split_usa</title>
<g class="st0">
	<text transform="matrix(1 0 0 1 64.815 33.229)" class="st1 st2 st3">50%</text>
	<text transform="matrix(1 0 0 1 414.295 33.229)" class="st1 st2 st3">50%</text>
	<text transform="matrix(1 0 0 1 18.645 103.5291)" class="st1 st4 st3">P</text>
	<text transform="matrix(1 0 0 1 41.645 103.5291)" class="st1 st4 st3">ublisher</text>
	<text transform="matrix(1 0 0 1 232.885 103.5291)" class="st1 st4 st3">Songwriter</text>
	<text transform="matrix(1 0 0 1 490.065 103.5291)" class="st1 st4 st3">C</text>
	<text transform="matrix(1 0 0 1 513.6949 103.5291)" class="st1 st4 st3">omposer</text>
	<path class="st5" d="M128.9,164.4c0,7.9-2.9,15.5-8.2,21.4c-12.1,13.5-32.8,14.6-46.3,2.6c-1-0.9-1.9-1.8-2.7-2.7
		c-11.7-13.2-10.5-33.4,2.7-45.2c1.9-1.7,3.9-3.1,6.1-4.3c9.9-5.4,21.9-5.3,31.7,0.1C122.5,141.9,128.9,152.7,128.9,164.4z"/>
	
		<linearGradient id="SVGID_1_" gradientUnits="userSpaceOnUse" x1="96.2" y1="365.1691" x2="96.2" y2="582.199" gradientTransform="matrix(1 0 0 1 0 -308)">
		<stop  offset="0" style="stop-color:#1CFFD8"/>
		<stop  offset="1" style="stop-color:#6C43FF"/>
	</linearGradient>
	<path class="st6" d="M120.7,185.7c-12.1,13.5-32.8,14.6-46.3,2.6c-1-0.9-1.9-1.8-2.7-2.7l11.9-6.3c1.7-0.9,2.7-2.6,2.7-4.5v-5.2
		c-2.5-3.1-4.3-6.8-5.2-10.6c-1.2-0.8-2-2.1-2-3.6v-5.7c0-1.2,0.5-2.3,1.4-3.1v-8.2c-0.1-0.7-0.1-1.4,0-2.1
		c0.4-3.6,2.8-10.7,15.9-10.7c13.3,0,15.6,7.3,15.9,10.8c0.1,0.6,0.1,1.3,0,1.9v8.2c0.9,0.8,1.4,1.9,1.4,3.2v5.7
		c0,1.9-1.3,3.5-3.1,4.1c-1,3-2.4,5.9-4.3,8.5c-0.4,0.6-0.8,1.1-1.3,1.6v5.3c0,2,1.1,3.8,2.9,4.6L120.7,185.7z"/>
	<path class="st5" d="M373.8,164.4c0,7.9-2.9,15.5-8.2,21.4c-12.1,13.5-32.8,14.6-46.3,2.6c-1-0.9-1.9-1.8-2.7-2.7
		c-11.7-13.2-10.5-33.4,2.7-45.2c1.9-1.7,3.9-3.1,6.1-4.3c9.9-5.4,21.9-5.3,31.7,0.1C367.4,141.9,373.8,152.7,373.8,164.4z"/>
	
		<linearGradient id="SVGID_2_" gradientUnits="userSpaceOnUse" x1="341.1" y1="365.1691" x2="341.1" y2="582.199" gradientTransform="matrix(1 0 0 1 0 -308)">
		<stop  offset="0" style="stop-color:#1CFFD8"/>
		<stop  offset="1" style="stop-color:#6C43FF"/>
	</linearGradient>
	<path class="st7" d="M365.6,185.7c-12.1,13.5-32.8,14.6-46.3,2.6c-1-0.9-1.9-1.8-2.7-2.7l11.8-6.3c1.7-0.9,2.7-2.6,2.7-4.5v-5.2
		c-2.5-3.1-4.3-6.8-5.2-10.6c-1.2-0.8-2-2.1-2-3.6v-5.7c0-1.2,0.5-2.4,1.4-3.2v-8.3c-0.1-0.7-0.1-1.4,0-2.1
		c0.4-3.6,2.8-10.7,15.9-10.7c13.3,0,15.6,7.3,15.9,10.8c0.1,0.6,0.1,1.3,0,1.9v8.3c0.9,0.8,1.4,1.9,1.5,3.2v5.7
		c0,1.9-1.3,3.5-3.1,4.1c-1,3-2.4,5.9-4.3,8.5c-0.5,0.6-0.9,1.2-1.3,1.6v5.3c0,2,1.1,3.8,2.9,4.6L365.6,185.7z"/>
	<path class="st5" d="M607,164.4c0,7.9-2.9,15.5-8.2,21.4c-12.1,13.5-32.8,14.6-46.3,2.6c-1-0.9-1.9-1.8-2.7-2.7
		c-11.7-13.2-10.5-33.5,2.7-45.2c1.9-1.7,3.9-3.1,6.1-4.3c9.9-5.4,21.9-5.3,31.7,0.1C600.6,141.9,607,152.7,607,164.4z"/>
	
		<linearGradient id="SVGID_3_" gradientUnits="userSpaceOnUse" x1="574.3" y1="365.1691" x2="574.3" y2="582.199" gradientTransform="matrix(1 0 0 1 0 -308)">
		<stop  offset="0" style="stop-color:#1CFFD8"/>
		<stop  offset="1" style="stop-color:#6C43FF"/>
	</linearGradient>
	<path class="st8" d="M598.8,185.7c-12.1,13.5-32.8,14.6-46.3,2.6c-1-0.9-1.9-1.8-2.7-2.7l11.8-6.3c1.7-0.9,2.7-2.6,2.7-4.5v-5.2
		c-2.5-3.1-4.3-6.8-5.2-10.6c-1.2-0.8-2-2.1-2-3.6v-5.7c0-1.2,0.6-2.3,1.5-3.1v-8.2c-0.1-0.7-0.1-1.4,0-2.1
		c0.4-3.6,2.8-10.7,15.9-10.7c13.3,0,15.6,7.3,15.9,10.8c0.1,0.6,0.1,1.3,0,1.9v8.2c0.9,0.8,1.4,1.9,1.4,3.2v5.7
		c0,1.9-1.3,3.5-3.1,4.1c-1,3-2.4,5.9-4.3,8.5c-0.4,0.6-0.8,1.1-1.3,1.6v5.3c0,2,1.1,3.8,2.9,4.6L598.8,185.7z"/>
	<path class="st9" d="M4.6,77.7L4.6,77.7c0-13.4,11.3-24.3,25.3-24.3h132.9c14,0,25.3,10.9,25.3,24.3l0,0"/>
	<path class="st10" d="M196.2,77.7L196.2,77.7c0-13.4,12.3-24.3,27.4-24.3H668c15.1,0,27.4,10.9,27.4,24.3l0,0"/>
</g>
<g>
	<g>
		<text transform="matrix(1 0 0 1 86.345 33.2393)" class="st11 st2 st3">33%</text>
		<path class="st12" d="M5.6,77.7L5.6,77.7c0-13.4,10.9-24.3,24.3-24.3c0,0,0,0,0.1,0h175.9c13.4,0,24.3,10.9,24.3,24.3l0,0l0,0"/>
		<text transform="matrix(1 0 0 1 40.165 103.5393)" class="st11 st4 st3">P</text>
		<text transform="matrix(1 0 0 1 63.165 103.5393)" class="st11 st4 st3">ublisher</text>
		<path class="st13" d="M150.4,164.4c0,7.9-2.9,15.5-8.2,21.4c-12.1,13.5-32.8,14.6-46.3,2.5c-0.9-0.8-1.8-1.7-2.6-2.6
			c-11.7-13.2-10.5-33.4,2.7-45.2c1.9-1.7,3.9-3.1,6.1-4.3c9.9-5.4,21.9-5.4,31.8,0.1C144.1,141.9,150.4,152.7,150.4,164.4z"/>
		
			<linearGradient id="SVGID_4_" gradientUnits="userSpaceOnUse" x1="117.85" y1="359.1693" x2="117.85" y2="576.1993" gradientTransform="matrix(1 0 0 1 0 -302)">
			<stop  offset="0" style="stop-color:#1CFFD8"/>
			<stop  offset="1" style="stop-color:#6C43FF"/>
		</linearGradient>
		<path class="st14" d="M142.3,185.7c-12.1,13.5-32.8,14.6-46.3,2.5c-0.9-0.8-1.8-1.7-2.6-2.6l11.7-6.4c1.7-0.9,2.7-2.6,2.7-4.5
			v-5.2c-2.5-3.1-4.3-6.8-5.2-10.7c-1.2-0.8-2-2.1-2-3.6v-5.7c0-1.2,0.5-2.4,1.4-3.2v-8.1c-0.1-0.7-0.1-1.4,0-2.1
			c0.4-3.6,2.8-10.7,15.9-10.7c13.3,0,15.6,7.3,15.9,10.8c0.1,0.7,0.1,1.3,0,2v8.2c0.9,0.8,1.4,2,1.4,3.2v5.7c0,1.9-1.3,3.5-3.1,4.1
			c-1,3-2.4,5.9-4.2,8.5c-0.5,0.6-0.9,1.2-1.3,1.7v5.3c0,2,1.1,3.8,2.9,4.6L142.3,185.7z"/>
	</g>
	<g>
		<path class="st12" d="M237.7,77.7L237.7,77.7c0-13.4,10.9-24.3,24.3-24.3h175.9c13.4,0,24.3,10.9,24.3,24.3l0,0"/>
		<text transform="matrix(1 0 0 1 318.465 33.2393)" class="st11 st2 st3">33%</text>
		<text transform="matrix(1 0 0 1 256.925 103.5393)" class="st11 st4 st3">Songwriter</text>
		<path class="st13" d="M382.6,164.4c0,7.9-2.9,15.5-8.2,21.4c-12.1,13.5-32.8,14.6-46.3,2.5c-0.9-0.8-1.8-1.7-2.7-2.7
			c-11.7-13.2-10.5-33.5,2.7-45.2c1.9-1.7,3.9-3.1,6.1-4.3c9.9-5.4,21.9-5.4,31.7,0.1C376.2,142,382.6,152.7,382.6,164.4z"/>
		
			<linearGradient id="SVGID_5_" gradientUnits="userSpaceOnUse" x1="349.9" y1="359.1693" x2="349.9" y2="576.1993" gradientTransform="matrix(1 0 0 1 0 -302)">
			<stop  offset="0" style="stop-color:#1CFFD8"/>
			<stop  offset="1" style="stop-color:#6C43FF"/>
		</linearGradient>
		<path class="st15" d="M374.4,185.7c-12.1,13.5-32.8,14.6-46.3,2.5c-0.9-0.8-1.8-1.7-2.7-2.7l11.9-6.4c1.7-0.9,2.7-2.6,2.7-4.5
			v-5.2c-2.5-3.1-4.3-6.8-5.2-10.7c-1.2-0.8-2-2.1-2-3.6v-5.7c0-1.2,0.5-2.4,1.4-3.2v-8c-0.1-0.7-0.1-1.4,0-2.1
			c0.4-3.6,2.8-10.7,15.9-10.7c13.3,0,15.6,7.3,15.9,10.8c0.1,0.7,0.1,1.3,0,2v8.2c0.9,0.8,1.4,1.9,1.5,3.2v5.7
			c0,1.9-1.3,3.5-3.1,4.1c-1,3-2.4,5.9-4.3,8.5c-0.5,0.6-0.9,1.2-1.3,1.7v5.3c0,2,1.1,3.8,2.9,4.6L374.4,185.7z"/>
	</g>
	<g>
		<path class="st12" d="M469.8,77.7L469.8,77.7c0-13.4,10.9-24.3,24.3-24.3l0,0h176c13.4,0,24.3,10.9,24.3,24.3l0,0l0,0"/>
		<text transform="matrix(1 0 0 1 550.595 33.2393)" class="st11 st2 st3">33%</text>
		<text transform="matrix(1 0 0 1 497.765 103.5393)" class="st11 st4 st3">C</text>
		<text transform="matrix(1 0 0 1 521.395 103.5393)" class="st11 st4 st3">omposer</text>
		<path class="st13" d="M614.7,164.4c0,7.9-2.9,15.5-8.2,21.4c-12.1,13.5-32.8,14.6-46.3,2.5c-0.9-0.8-1.8-1.7-2.7-2.7
			c-11.7-13.2-10.5-33.4,2.7-45.2c1.9-1.7,3.9-3.1,6.1-4.3c9.9-5.4,21.9-5.4,31.8,0.1C608.3,141.9,614.7,152.7,614.7,164.4z"/>
		
			<linearGradient id="SVGID_6_" gradientUnits="userSpaceOnUse" x1="582" y1="359.1693" x2="582" y2="576.1993" gradientTransform="matrix(1 0 0 1 0 -302)">
			<stop  offset="0" style="stop-color:#1CFFD8"/>
			<stop  offset="1" style="stop-color:#6C43FF"/>
		</linearGradient>
		<path class="st16" d="M606.5,185.7c-12.1,13.5-32.8,14.6-46.3,2.5c-0.9-0.8-1.8-1.7-2.7-2.7l11.8-6.4c1.7-0.9,2.7-2.6,2.7-4.5
			v-5.2c-2.5-3.1-4.2-6.8-5.2-10.7c-1.2-0.8-2-2.1-2-3.6v-5.7c0-1.2,0.5-2.4,1.4-3.2v-8c-0.1-0.7-0.1-1.4,0-2.1
			c0.4-3.6,2.8-10.7,15.9-10.7c13.3,0,15.6,7.3,15.9,10.8c0.1,0.7,0.1,1.3,0,2v8.2c0.9,0.8,1.4,2,1.4,3.2v5.7c0,1.9-1.3,3.5-3.1,4.1
			c-1,3-2.4,5.9-4.3,8.5c-0.5,0.6-0.9,1.2-1.3,1.7v5.3c0,2,1.1,3.8,2.9,4.6L606.5,185.7z"/>
	</g>
</g>
</svg>
