<?xml version="1.0" encoding="utf-8"?>
<!-- Generator: Adobe Illustrator 23.0.0, SVG Export Plug-In . SVG Version: 6.00 Build 0)  -->
<svg version="1.1" id="Layer_1" xmlns="http://www.w3.org/2000/svg" xmlns:xlink="http://www.w3.org/1999/xlink" x="0px" y="0px"
	 viewBox="0 0 700 200" style="enable-background:new 0 0 700 200;" xml:space="preserve">
<style type="text/css">
	.st0{fill:#202063;}
	.st1{font-family:'RobotoMono-Regular';}
	.st2{font-size:35px;}
	.st3{font-family:'Muli-Bold';}
	.st4{fill-rule:evenodd;clip-rule:evenodd;fill:#D1E3FF;}
	.st5{fill:url(#SVGID_1_);}
	.st6{fill:url(#SVGID_2_);}
	.st7{fill:url(#SVGID_3_);}
	.st8{fill:none;stroke:#202063;stroke-width:5.1105;stroke-linecap:round;stroke-linejoin:round;}
	.st9{fill:none;stroke:#202063;stroke-width:5.3233;stroke-linecap:round;stroke-linejoin:round;}
</style>
<title>publisher_split_usa</title>
<g>
	<text transform="matrix(1 0 0 1 64.815 33.229)" class="st0 st1 st2">50%</text>
	<text transform="matrix(1 0 0 1 414.295 33.229)" class="st0 st1 st2">50%</text>
	<text transform="matrix(1 0 0 1 18.645 103.5291)" class="st0 st3 st2">P</text>
	<text transform="matrix(1 0 0 1 41.645 103.5291)" class="st0 st3 st2">ublisher</text>
	<text transform="matrix(1 0 0 1 232.885 103.5291)" class="st0 st3 st2">Songwriter</text>
	<text transform="matrix(1 0 0 1 490.065 103.5291)" class="st0 st3 st2">C</text>
	<text transform="matrix(1 0 0 1 513.6949 103.5291)" class="st0 st3 st2">omposer</text>
	<path class="st4" d="M128.9,164.4c0,7.9-2.9,15.5-8.2,21.4c-12.1,13.5-32.8,14.6-46.3,2.6c-1-0.9-1.9-1.8-2.7-2.7
		c-11.7-13.2-10.5-33.4,2.7-45.2c1.9-1.7,3.9-3.1,6.1-4.3c9.9-5.4,21.9-5.3,31.7,0.1C122.5,141.9,128.9,152.7,128.9,164.4z"/>
	
		<linearGradient id="SVGID_1_" gradientUnits="userSpaceOnUse" x1="96.2" y1="365.1691" x2="96.2" y2="582.199" gradientTransform="matrix(1 0 0 1 0 -308)">
		<stop  offset="0" style="stop-color:#1CFFD8"/>
		<stop  offset="1" style="stop-color:#6C43FF"/>
	</linearGradient>
	<path class="st5" d="M120.7,185.7c-12.1,13.5-32.8,14.6-46.3,2.6c-1-0.9-1.9-1.8-2.7-2.7l11.9-6.3c1.7-0.9,2.7-2.6,2.7-4.5v-5.2
		c-2.5-3.1-4.3-6.8-5.2-10.6c-1.2-0.8-2-2.1-2-3.6v-5.7c0-1.2,0.5-2.3,1.4-3.1v-8.2c-0.1-0.7-0.1-1.4,0-2.1
		c0.4-3.6,2.8-10.7,15.9-10.7c13.3,0,15.6,7.3,15.9,10.8c0.1,0.6,0.1,1.3,0,1.9v8.2c0.9,0.8,1.4,1.9,1.4,3.2v5.7
		c0,1.9-1.3,3.5-3.1,4.1c-1,3-2.4,5.9-4.3,8.5c-0.4,0.6-0.8,1.1-1.3,1.6v5.3c0,2,1.1,3.8,2.9,4.6L120.7,185.7z"/>
	<path class="st4" d="M373.8,164.4c0,7.9-2.9,15.5-8.2,21.4c-12.1,13.5-32.8,14.6-46.3,2.6c-1-0.9-1.9-1.8-2.7-2.7
		c-11.7-13.2-10.5-33.4,2.7-45.2c1.9-1.7,3.9-3.1,6.1-4.3c9.9-5.4,21.9-5.3,31.7,0.1C367.4,141.9,373.8,152.7,373.8,164.4z"/>
	
		<linearGradient id="SVGID_2_" gradientUnits="userSpaceOnUse" x1="341.1" y1="365.1691" x2="341.1" y2="582.199" gradientTransform="matrix(1 0 0 1 0 -308)">
		<stop  offset="0" style="stop-color:#1CFFD8"/>
		<stop  offset="1" style="stop-color:#6C43FF"/>
	</linearGradient>
	<path class="st6" d="M365.6,185.7c-12.1,13.5-32.8,14.6-46.3,2.6c-1-0.9-1.9-1.8-2.7-2.7l11.8-6.3c1.7-0.9,2.7-2.6,2.7-4.5v-5.2
		c-2.5-3.1-4.3-6.8-5.2-10.6c-1.2-0.8-2-2.1-2-3.6v-5.7c0-1.2,0.5-2.4,1.4-3.2v-8.3c-0.1-0.7-0.1-1.4,0-2.1
		c0.4-3.6,2.8-10.7,15.9-10.7c13.3,0,15.6,7.3,15.9,10.8c0.1,0.6,0.1,1.3,0,1.9v8.3c0.9,0.8,1.4,1.9,1.5,3.2v5.7
		c0,1.9-1.3,3.5-3.1,4.1c-1,3-2.4,5.9-4.3,8.5c-0.5,0.6-0.9,1.2-1.3,1.6v5.3c0,2,1.1,3.8,2.9,4.6L365.6,185.7z"/>
	<path class="st4" d="M607,164.4c0,7.9-2.9,15.5-8.2,21.4c-12.1,13.5-32.8,14.6-46.3,2.6c-1-0.9-1.9-1.8-2.7-2.7
		c-11.7-13.2-10.5-33.5,2.7-45.2c1.9-1.7,3.9-3.1,6.1-4.3c9.9-5.4,21.9-5.3,31.7,0.1C600.6,141.9,607,152.7,607,164.4z"/>
	
		<linearGradient id="SVGID_3_" gradientUnits="userSpaceOnUse" x1="574.3" y1="365.1691" x2="574.3" y2="582.199" gradientTransform="matrix(1 0 0 1 0 -308)">
		<stop  offset="0" style="stop-color:#1CFFD8"/>
		<stop  offset="1" style="stop-color:#6C43FF"/>
	</linearGradient>
	<path class="st7" d="M598.8,185.7c-12.1,13.5-32.8,14.6-46.3,2.6c-1-0.9-1.9-1.8-2.7-2.7l11.8-6.3c1.7-0.9,2.7-2.6,2.7-4.5v-5.2
		c-2.5-3.1-4.3-6.8-5.2-10.6c-1.2-0.8-2-2.1-2-3.6v-5.7c0-1.2,0.6-2.3,1.5-3.1v-8.2c-0.1-0.7-0.1-1.4,0-2.1
		c0.4-3.6,2.8-10.7,15.9-10.7c13.3,0,15.6,7.3,15.9,10.8c0.1,0.6,0.1,1.3,0,1.9v8.2c0.9,0.8,1.4,1.9,1.4,3.2v5.7
		c0,1.9-1.3,3.5-3.1,4.1c-1,3-2.4,5.9-4.3,8.5c-0.4,0.6-0.8,1.1-1.3,1.6v5.3c0,2,1.1,3.8,2.9,4.6L598.8,185.7z"/>
	<path class="st8" d="M4.6,77.7L4.6,77.7c0-13.4,11.3-24.3,25.3-24.3h132.9c14,0,25.3,10.9,25.3,24.3l0,0"/>
	<path class="st9" d="M196.2,77.7L196.2,77.7c0-13.4,12.3-24.3,27.4-24.3H668c15.1,0,27.4,10.9,27.4,24.3l0,0"/>
</g>
</svg>
