<?xml version="1.0" encoding="utf-8"?>
<!-- Generator: Adobe Illustrator 23.0.0, SVG Export Plug-In . SVG Version: 6.00 Build 0)  -->
<svg version="1.1" id="Layer_1" xmlns="http://www.w3.org/2000/svg" xmlns:xlink="http://www.w3.org/1999/xlink" x="0px" y="0px"
	 viewBox="0 0 697 199" style="enable-background:new 0 0 697 199;" xml:space="preserve">
<style type="text/css">
	.st0{fill:#202063;}
	.st1{font-family:'RobotoMono-Regular';}
	.st2{font-size:35px;}
	.st3{fill:none;stroke:#202063;stroke-width:5.1105;stroke-linecap:round;stroke-linejoin:round;}
	.st4{font-family:'Muli-Bold';}
	.st5{fill-rule:evenodd;clip-rule:evenodd;fill:#D1E3FF;}
	.st6{fill:url(#SVGID_1_);}
	.st7{fill:url(#SVGID_2_);}
	.st8{fill:url(#SVGID_3_);}
</style>
<title>publisher_split_eu</title>
<g>
	<g>
		<text transform="matrix(1 0 0 1 85.245 31.0344)" class="st0 st1 st2">33%</text>
		<path class="st3" d="M4.5,75.5L4.5,75.5c0-13.4,10.9-24.3,24.3-24.3c0,0,0,0,0.1,0h175.9c13.4,0,24.3,10.9,24.3,24.3l0,0l0,0"/>
		<text transform="matrix(1 0 0 1 39.065 101.3344)" class="st0 st4 st2">P</text>
		<text transform="matrix(1 0 0 1 62.065 101.3344)" class="st0 st4 st2">ublisher</text>
		<path class="st5" d="M149.3,162.2c0,7.9-2.9,15.5-8.2,21.4c-12.1,13.5-32.8,14.6-46.3,2.5c-0.9-0.8-1.8-1.7-2.6-2.6
			c-11.7-13.2-10.5-33.4,2.7-45.2c1.9-1.7,3.9-3.1,6.1-4.3c9.9-5.4,21.9-5.4,31.8,0.1C143,139.7,149.3,150.5,149.3,162.2z"/>
		
			<linearGradient id="SVGID_1_" gradientUnits="userSpaceOnUse" x1="116.68" y1="143.0356" x2="116.68" y2="-73.9944" gradientTransform="matrix(1 0 0 -1 0 198)">
			<stop  offset="0" style="stop-color:#1CFFD8"/>
			<stop  offset="1" style="stop-color:#6C43FF"/>
		</linearGradient>
		<path class="st6" d="M141.2,183.5c-12.1,13.5-32.8,14.6-46.3,2.5c-0.9-0.8-1.8-1.7-2.6-2.6L104,177c1.7-0.9,2.7-2.6,2.7-4.5v-5.2
			c-2.5-3.1-4.3-6.8-5.2-10.7c-1.2-0.8-2-2.1-2-3.6v-5.7c0-1.2,0.5-2.4,1.4-3.2V136c-0.1-0.7-0.1-1.4,0-2.1
			c0.4-3.6,2.8-10.7,15.9-10.7c13.3,0,15.6,7.3,15.9,10.8c0.1,0.7,0.1,1.3,0,2v8.2c0.9,0.8,1.4,2,1.4,3.2v5.7c0,1.9-1.3,3.5-3.1,4.1
			c-1,3-2.4,5.9-4.2,8.5c-0.5,0.6-0.9,1.2-1.3,1.7v5.3c0,2,1.1,3.8,2.9,4.6L141.2,183.5z"/>
	</g>
	<g>
		<path class="st3" d="M236.6,75.5L236.6,75.5c0-13.4,10.9-24.3,24.3-24.3h175.9c13.4,0,24.3,10.9,24.3,24.3l0,0"/>
		<text transform="matrix(1 0 0 1 317.365 31.0344)" class="st0 st1 st2">33%</text>
		<text transform="matrix(1 0 0 1 255.825 101.3344)" class="st0 st4 st2">Songwriter</text>
		<path class="st5" d="M381.5,162.2c0,7.9-2.9,15.5-8.2,21.4c-12.1,13.5-32.8,14.6-46.3,2.5c-0.9-0.8-1.8-1.7-2.7-2.7
			c-11.7-13.2-10.5-33.5,2.7-45.2c1.9-1.7,3.9-3.1,6.1-4.3c9.9-5.4,21.9-5.4,31.7,0.1C375.1,139.8,381.5,150.5,381.5,162.2z"/>
		
			<linearGradient id="SVGID_2_" gradientUnits="userSpaceOnUse" x1="348.785" y1="143.0356" x2="348.785" y2="-73.9944" gradientTransform="matrix(1 0 0 -1 0 198)">
			<stop  offset="0" style="stop-color:#1CFFD8"/>
			<stop  offset="1" style="stop-color:#6C43FF"/>
		</linearGradient>
		<path class="st7" d="M373.3,183.5c-12.1,13.5-32.8,14.6-46.3,2.5c-0.9-0.8-1.8-1.7-2.7-2.7l11.9-6.4c1.7-0.9,2.7-2.6,2.7-4.5v-5.2
			c-2.5-3.1-4.3-6.8-5.2-10.7c-1.2-0.8-2-2.1-2-3.6v-5.7c0-1.2,0.5-2.4,1.4-3.2V136c-0.1-0.7-0.1-1.4,0-2.1
			c0.4-3.6,2.8-10.7,15.9-10.7c13.3,0,15.6,7.3,15.9,10.8c0.1,0.7,0.1,1.3,0,2v8.2c0.9,0.8,1.4,1.9,1.5,3.2v5.7
			c0,1.9-1.3,3.5-3.1,4.1c-1,3-2.4,5.9-4.3,8.5c-0.5,0.6-0.9,1.2-1.3,1.7v5.3c0,2,1.1,3.8,2.9,4.6L373.3,183.5z"/>
	</g>
	<g>
		<path class="st3" d="M468.7,75.5L468.7,75.5c0-13.4,10.9-24.3,24.3-24.3c0,0,0,0,0,0H669c13.4,0,24.3,10.9,24.3,24.3v0l0,0"/>
		<text transform="matrix(1 0 0 1 549.495 31.0344)" class="st0 st1 st2">33%</text>
		<text transform="matrix(1 0 0 1 496.665 101.3344)" class="st0 st4 st2">C</text>
		<text transform="matrix(1 0 0 1 520.295 101.3344)" class="st0 st4 st2">omposer</text>
		<path class="st5" d="M613.6,162.2c0,7.9-2.9,15.5-8.2,21.4c-12.1,13.5-32.8,14.6-46.3,2.5c-0.9-0.8-1.8-1.7-2.7-2.7
			c-11.7-13.2-10.5-33.4,2.7-45.2c1.9-1.7,3.9-3.1,6.1-4.3c9.9-5.4,21.9-5.4,31.8,0.1C607.2,139.7,613.6,150.5,613.6,162.2z"/>
		
			<linearGradient id="SVGID_3_" gradientUnits="userSpaceOnUse" x1="580.905" y1="143.0356" x2="580.905" y2="-73.9944" gradientTransform="matrix(1 0 0 -1 0 198)">
			<stop  offset="0" style="stop-color:#1CFFD8"/>
			<stop  offset="1" style="stop-color:#6C43FF"/>
		</linearGradient>
		<path class="st8" d="M605.4,183.5c-12.1,13.5-32.8,14.6-46.3,2.5c-0.9-0.8-1.8-1.7-2.7-2.7l11.8-6.4c1.7-0.9,2.7-2.6,2.7-4.5v-5.2
			c-2.5-3.1-4.2-6.8-5.2-10.7c-1.2-0.8-2-2.1-2-3.6v-5.7c0-1.2,0.5-2.4,1.4-3.2V136c-0.1-0.7-0.1-1.4,0-2.1
			c0.4-3.6,2.8-10.7,15.9-10.7c13.3,0,15.6,7.3,15.9,10.8c0.1,0.7,0.1,1.3,0,2v8.2c0.9,0.8,1.4,2,1.4,3.2v5.7c0,1.9-1.3,3.5-3.1,4.1
			c-1,3-2.4,5.9-4.3,8.5c-0.5,0.6-0.9,1.2-1.3,1.7v5.3c0,2,1.1,3.8,2.9,4.6L605.4,183.5z"/>
	</g>
</g>
</svg>
