<svg id="Layer_1" data-name="Layer 1" xmlns="http://www.w3.org/2000/svg" xmlns:xlink="http://www.w3.org/1999/xlink" viewBox="0 0 694.02 193.37"><defs><linearGradient id="linear-gradient" x1="176.17" y1="144.82" x2="176.17" y2="-72.21" gradientTransform="matrix(1, 0, 0, -1, 0, 202)" gradientUnits="userSpaceOnUse"><stop offset="0" stop-color="#1cffd8"/><stop offset="1" stop-color="#6c43ff"/></linearGradient><linearGradient id="linear-gradient-2" x1="612.92" y1="144.82" x2="612.92" y2="-72.21" xlink:href="#linear-gradient"/><linearGradient id="linear-gradient-3" x1="441.65" y1="144.82" x2="441.65" y2="-72.21" xlink:href="#linear-gradient"/></defs><title>publisher_split_usaV2</title><text transform="translate(141.71 29.94)" style="isolation:isolate;font-size:35px;fill:#202063;font-family:RobotoMono-Regular, Roboto Mono">50%</text><g style="isolation:isolate"><text transform="translate(95.54 100.24)" style="isolation:isolate;font-size:35px;fill:#202063;font-family:Muli-Bold, Muli;font-weight:700;letter-spacing:-0.0080078125em">P</text><text transform="translate(118.54 100.24)" style="isolation:isolate;font-size:35px;fill:#202063;font-family:Muli-Bold, Muli;font-weight:700">ublisher</text></g><path d="M208.85,164.4a31.83,31.83,0,0,1-8.18,21.35,32.83,32.83,0,0,1-49-.15,32,32,0,0,1,8.79-49.43,32.91,32.91,0,0,1,31.74.14A32.11,32.11,0,0,1,208.85,164.4Z" transform="translate(-3.04 -3.3)" style="fill:#d1e3ff;fill-rule:evenodd"/><path d="M200.67,185.75a32.83,32.83,0,0,1-49-.15l11.9-6.34a5.15,5.15,0,0,0,2.73-4.54v-5.19a28.14,28.14,0,0,1-5.21-10.64,4.22,4.22,0,0,1-2-3.58v-5.67a4.23,4.23,0,0,1,1.4-3.11v-8.22a9.13,9.13,0,0,1,0-2.09c.37-3.62,2.77-10.71,15.86-10.71,13.26,0,15.56,7.26,15.88,10.85a10.58,10.58,0,0,1,0,1.95v8.22a4.21,4.21,0,0,1,1.44,3.16v5.67a4.29,4.29,0,0,1-3.07,4.07,30.76,30.76,0,0,1-4.29,8.5,20.47,20.47,0,0,1-1.3,1.65v5.33a5.17,5.17,0,0,0,2.91,4.62Z" transform="translate(-3.04 -3.3)" style="fill:url(#linear-gradient)"/><path d="M5.6,77.72h0c0-13.44,11.31-24.33,25.26-24.33H320.69c14,0,25.26,10.89,25.26,24.33" transform="translate(-3.04 -3.3)" style="fill:none;stroke:#202063;stroke-linecap:round;stroke-linejoin:round;stroke-width:5.110480785369873px"/><text transform="translate(489.19 29.94)" style="isolation:isolate;font-size:35px;fill:#202063;font-family:RobotoMono-Regular, Roboto Mono">50%</text><text transform="translate(361.57 101.88)" style="isolation:isolate;font-size:29.001718521118164px;fill:#202063;font-family:Muli-Bold, Muli;font-weight:700">Songwriter</text><g style="isolation:isolate"><text transform="translate(540.05 101.88)" style="isolation:isolate;font-size:29.001718521118164px;fill:#202063;font-family:Muli-Bold, Muli;font-weight:700;letter-spacing:-0.01000075434456763em">C</text><text transform="translate(559.63 101.88)" style="isolation:isolate;font-size:29.001718521118164px;fill:#202063;font-family:Muli-Bold, Muli;font-weight:700">omposer</text></g><path d="M645.6,164.4a31.93,31.93,0,0,1-8.18,21.35,32.8,32.8,0,0,1-46.31,2.56,31.27,31.27,0,0,1-2.69-2.71,32,32,0,0,1,2.72-45.17,31.55,31.55,0,0,1,6.11-4.26,32.91,32.91,0,0,1,31.74.14A32.14,32.14,0,0,1,645.6,164.4Z" transform="translate(-3.04 -3.3)" style="fill:#d1e3ff;fill-rule:evenodd"/><path d="M637.42,185.75a32.8,32.8,0,0,1-46.31,2.56,31.27,31.27,0,0,1-2.69-2.71l11.83-6.34a5.19,5.19,0,0,0,2.73-4.54v-5.19a28,28,0,0,1-5.21-10.64,4.19,4.19,0,0,1-2-3.58v-5.67a4.2,4.2,0,0,1,1.48-3.11v-8.22a9.13,9.13,0,0,1,0-2.09c.37-3.62,2.77-10.71,15.86-10.71,13.26,0,15.56,7.26,15.88,10.85a10.58,10.58,0,0,1,0,1.95v8.22a4.25,4.25,0,0,1,1.44,3.16v5.67a4.31,4.31,0,0,1-3.07,4.07,31.46,31.46,0,0,1-4.29,8.5c-.41.57-.84,1.12-1.3,1.65v5.33a5.13,5.13,0,0,0,2.91,4.62Z" transform="translate(-3.04 -3.3)" style="fill:url(#linear-gradient-2)"/><path d="M474.33,164.4a31.88,31.88,0,0,1-8.18,21.35,32.79,32.79,0,0,1-46.3,2.56,30,30,0,0,1-2.7-2.71,32,32,0,0,1,2.72-45.17,31.55,31.55,0,0,1,6.11-4.26,32.91,32.91,0,0,1,31.74.14A32.14,32.14,0,0,1,474.33,164.4Z" transform="translate(-3.04 -3.3)" style="fill:#d1e3ff;fill-rule:evenodd"/><path d="M466.15,185.75a32.79,32.79,0,0,1-46.3,2.56,30,30,0,0,1-2.7-2.71L429,179.26a5.19,5.19,0,0,0,2.73-4.54v-5.19a28,28,0,0,1-5.21-10.64,4.22,4.22,0,0,1-2-3.58v-5.67a4.2,4.2,0,0,1,1.48-3.11v-8.22a9.13,9.13,0,0,1,0-2.09c.37-3.62,2.77-10.71,15.86-10.71,13.26,0,15.56,7.26,15.88,10.85a10.58,10.58,0,0,1,0,1.95v8.22a4.25,4.25,0,0,1,1.44,3.16v5.67a4.31,4.31,0,0,1-3.07,4.07,31.18,31.18,0,0,1-4.29,8.5c-.41.57-.84,1.12-1.3,1.65v5.33a5.15,5.15,0,0,0,2.91,4.62Z" transform="translate(-3.04 -3.3)" style="fill:url(#linear-gradient-3)"/><path d="M354.05,77.72c0-13.44,12.27-24.33,27.41-24.33H667c15.14,0,27.41,10.89,27.41,24.33h0" transform="translate(-3.04 -3.3)" style="fill:none;stroke:#202063;stroke-linecap:round;stroke-linejoin:round;stroke-width:5.323305606842041px"/></svg>