<svg id="Layer_1" data-name="Layer 1" xmlns="http://www.w3.org/2000/svg" xmlns:xlink="http://www.w3.org/1999/xlink" viewBox="0 0 690 1080"><defs><clipPath id="clip-path"><rect x="-0.03" width="689.98" height="1080.1" style="fill:none"/></clipPath><linearGradient id="linear-gradient" x1="-0.03" y1="540.05" x2="1140.07" y2="540.05" gradientUnits="userSpaceOnUse"><stop offset="0" stop-color="#fff" stop-opacity="0.2"/><stop offset="0.08" stop-color="#fff" stop-opacity="0.31"/><stop offset="0.25" stop-color="#fff" stop-opacity="0.51"/><stop offset="0.43" stop-color="#fff" stop-opacity="0.69"/><stop offset="0.59" stop-color="#fff" stop-opacity="0.82"/><stop offset="0.74" stop-color="#fff" stop-opacity="0.92"/><stop offset="0.88" stop-color="#fff" stop-opacity="0.98"/><stop offset="1" stop-color="#fff"/></linearGradient></defs><title>repertoire_bolletjes_helft</title><g style="clip-path:url(#clip-path)"><path d="M210,600.05a60,60,0,1,0,60,60,60.18,60.18,0,0,0-60-60m0,240a60,60,0,1,0,60,60,60.18,60.18,0,0,0-60-60M210,360a60,60,0,1,0,60,60,60.19,60.19,0,0,0-60-60M30,390a30,30,0,0,0,0,60,30,30,0,1,0,0-60M210,120a60,60,0,1,0,60,60,60.2,60.2,0,0,0-60-60m900.08,330a30,30,0,1,0-30-30,29.71,29.71,0,0,0,30,30M690,240a60,60,0,1,0-60-60,60.19,60.19,0,0,0,60,60m0-210A29.71,29.71,0,0,0,720,0a29.7,29.7,0,0,0-30-30A29.7,29.7,0,0,0,660,0a29.71,29.71,0,0,0,30,30M30,630.05a30,30,0,0,0,0,60,30,30,0,1,0,0-60M450,1050.1a30,30,0,1,0,30,30,29.7,29.7,0,0,0-30-30M450,30A29.72,29.72,0,0,0,480,0a29.71,29.71,0,0,0-30-30A29.7,29.7,0,0,0,420,0a29.71,29.71,0,0,0,30,30m0,210a60,60,0,1,0-60-60,60.19,60.19,0,0,0,60,60m0,330a90,90,0,1,0,90,90,89.89,89.89,0,0,0-90-90m480.05,30a60,60,0,1,0,60,60,60.16,60.16,0,0,0-60-60m0,240a60,60,0,1,0,60,60,60.16,60.16,0,0,0-60-60M930,360a60,60,0,1,0,60,60,60.18,60.18,0,0,0-60-60m0-240a60,60,0,1,0,60,60,60.18,60.18,0,0,0-60-60m180,510.05a30,30,0,1,0,30,30,29.7,29.7,0,0,0-30-30m-420,210a60,60,0,1,0,60,60,60.18,60.18,0,0,0-60-60m0,210a30,30,0,1,0,30,30,29.7,29.7,0,0,0-30-30M450,330a90,90,0,1,0,90,90,89.89,89.89,0,0,0-90-90m0,510.05a60,60,0,1,0,60,60,60.16,60.16,0,0,0-60-60m240-270a90,90,0,1,0,90,90,89.87,89.87,0,0,0-90-90m0-240a90,90,0,1,0,90,90,89.87,89.87,0,0,0-90-90" style="fill-rule:evenodd;opacity:0.1;fill:url(#linear-gradient)"/></g></svg>